<?xml version="1.0" encoding="utf-8"?>
<!-- Generator: Adobe Illustrator 27.7.0, SVG Export Plug-In . SVG Version: 6.00 Build 0)  -->
<svg version="1.1" id="Layer_1" xmlns="http://www.w3.org/2000/svg" xmlns:xlink="http://www.w3.org/1999/xlink" x="0px" y="0px"
	 viewBox="0 0 500 500" style="enable-background:new 0 0 500 500;" xml:space="preserve">
<style type="text/css">
	.st0{fill:#EFD372;stroke:#201600;stroke-miterlimit:10;}
	.st1{fill:#274C5B;}
</style>
<rect class="st0" width="500" height="500"/>
<path class="st1" d="M152.4,175.9c-9.1-4.6-19.9-6.9-32.6-6.9H56.6V331H90v-57.8h29.7c12.7,0,23.6-2.1,32.6-6.2
	c9.1-4.2,16.1-10.1,20.9-17.7c4.8-7.6,7.2-16.7,7.2-27.2c0-10.3-2.4-19.5-7.2-27.5C168.5,186.7,161.5,180.4,152.4,175.9z
	 M144.1,235.2c-1.9,3.8-4.8,6.8-8.8,8.9c-4,2.1-9.2,3.1-15.6,3.1H90v-52.1h29.7c6.4,0,11.6,1.3,15.6,3.8c4,2.5,6.9,5.9,8.8,10
	c1.9,4.2,2.8,8.6,2.8,13.5C146.9,227.1,146,231.4,144.1,235.2z"/>
<polygon class="st1" points="230.1,169 196.7,169 196.7,331 300.9,331 300.9,305 230.1,305 "/>
<path class="st1" d="M420.5,255.7c5.3-4.2,9.5-9.3,12.4-15.5c3-6.2,4.5-13.7,4.5-22.4c0-10.6-2.4-19.6-7.2-26.8
	c-4.8-7.3-11.7-12.8-20.7-16.5c-8.9-3.7-19.6-5.6-31.9-5.6H317V331h33.4v-60h26.5l30.7,60h35.7v-1.6l-35.1-66.5
	C412.8,260.9,416.9,258.5,420.5,255.7z M350.4,195.1h27.1c5.9,0,10.9,1,14.8,3c3.9,2,6.9,4.9,8.8,8.7c1.9,3.8,2.9,8.3,2.9,13.5
	c0,4.9-1,9.2-3,12.9c-1.9,3.7-4.8,6.6-8.7,8.7c-3.9,2.1-8.7,3.1-14.6,3.1h-27.3V195.1z"/>
</svg>
