<svg width="347" height="37" viewBox="0 0 347 37" fill="none" xmlns="http://www.w3.org/2000/svg">
<path d="M10.9326 18.3701H4.04883V14.0283H10.9326C11.9964 14.0283 12.8623 13.8551 13.5303 13.5088C14.1982 13.1501 14.6868 12.6553 14.9961 12.0244C15.3053 11.3936 15.46 10.6823 15.46 9.89062C15.46 9.08659 15.3053 8.33822 14.9961 7.64551C14.6868 6.9528 14.1982 6.39616 13.5303 5.97559C12.8623 5.55501 11.9964 5.34473 10.9326 5.34473H5.97852V28H0.412109V0.984375H10.9326C13.0479 0.984375 14.86 1.36784 16.3691 2.13477C17.8906 2.88932 19.0534 3.93457 19.8574 5.27051C20.6615 6.60645 21.0635 8.13411 21.0635 9.85352C21.0635 11.5977 20.6615 13.1068 19.8574 14.3809C19.0534 15.6549 17.8906 16.6383 16.3691 17.3311C14.86 18.0238 13.0479 18.3701 10.9326 18.3701ZM33.5508 28.3711C31.9922 28.3711 30.5944 28.1237 29.3574 27.6289C28.1204 27.1217 27.069 26.4229 26.2031 25.5322C25.3496 24.6416 24.694 23.6087 24.2363 22.4336C23.7786 21.2461 23.5498 19.9844 23.5498 18.6484V17.9062C23.5498 16.3848 23.7663 14.9932 24.1992 13.7314C24.6322 12.4697 25.2507 11.375 26.0547 10.4473C26.8711 9.51953 27.8607 8.80827 29.0234 8.31348C30.1862 7.80632 31.4974 7.55273 32.957 7.55273C34.3796 7.55273 35.6413 7.78776 36.7422 8.25781C37.8431 8.72786 38.7646 9.39583 39.5068 10.2617C40.2614 11.1276 40.8304 12.1667 41.2139 13.3789C41.5973 14.5788 41.7891 15.9147 41.7891 17.3867V19.6133H25.832V16.0508H36.5381V15.6426C36.5381 14.9004 36.402 14.2386 36.1299 13.6572C35.8701 13.0635 35.4743 12.5934 34.9424 12.2471C34.4105 11.9007 33.7301 11.7275 32.9014 11.7275C32.1963 11.7275 31.5902 11.8822 31.083 12.1914C30.5758 12.5007 30.1615 12.9336 29.8398 13.4902C29.5306 14.0469 29.2956 14.7025 29.1348 15.457C28.9863 16.1992 28.9121 17.0156 28.9121 17.9062V18.6484C28.9121 19.4525 29.0234 20.1947 29.2461 20.875C29.4811 21.5553 29.8089 22.1429 30.2295 22.6377C30.6624 23.1325 31.182 23.516 31.7881 23.7881C32.4066 24.0602 33.1055 24.1963 33.8848 24.1963C34.8496 24.1963 35.7464 24.0107 36.5752 23.6396C37.4163 23.2562 38.14 22.681 38.7461 21.9141L41.3438 24.7344C40.9232 25.3405 40.348 25.9219 39.6182 26.4785C38.9007 27.0352 38.0348 27.4928 37.0205 27.8516C36.0062 28.1979 34.8496 28.3711 33.5508 28.3711ZM50.1758 12.3027V28H44.832V7.92383H49.8604L50.1758 12.3027ZM56.2246 7.79395L56.1318 12.748C55.8721 12.7109 55.5566 12.68 55.1855 12.6553C54.8268 12.6182 54.499 12.5996 54.2021 12.5996C53.4476 12.5996 52.792 12.6986 52.2354 12.8965C51.6911 13.082 51.2334 13.3604 50.8623 13.7314C50.5036 14.1025 50.2314 14.554 50.0459 15.0859C49.8727 15.6178 49.7738 16.224 49.749 16.9043L48.6729 16.5703C48.6729 15.2715 48.8027 14.0778 49.0625 12.9893C49.3223 11.8883 49.6995 10.9297 50.1943 10.1133C50.7015 9.29688 51.32 8.66602 52.0498 8.2207C52.7796 7.77539 53.6146 7.55273 54.5547 7.55273C54.8516 7.55273 55.1546 7.57747 55.4639 7.62695C55.7731 7.66406 56.0267 7.71973 56.2246 7.79395ZM70.623 23.1943V7.92383H75.9668V28H70.9385L70.623 23.1943ZM71.2168 19.0752L72.7939 19.0381C72.7939 20.374 72.6393 21.6172 72.3301 22.7676C72.0208 23.9056 71.557 24.8952 70.9385 25.7363C70.32 26.5651 69.5407 27.2145 68.6006 27.6846C67.6605 28.1423 66.5534 28.3711 65.2793 28.3711C64.3021 28.3711 63.3991 28.235 62.5703 27.9629C61.7539 27.6784 61.0488 27.2393 60.4551 26.6455C59.8737 26.0394 59.416 25.2663 59.082 24.3262C58.7604 23.3737 58.5996 22.2295 58.5996 20.8936V7.92383H63.9434V20.9307C63.9434 21.5244 64.0114 22.0254 64.1475 22.4336C64.2959 22.8418 64.5 23.1758 64.7598 23.4355C65.0195 23.6953 65.3226 23.8809 65.6689 23.9922C66.0277 24.1035 66.4235 24.1592 66.8564 24.1592C67.9574 24.1592 68.8232 23.9365 69.4541 23.4912C70.0973 23.0459 70.5488 22.4398 70.8086 21.6729C71.0807 20.8936 71.2168 20.0277 71.2168 19.0752ZM107.213 23.6582V28H93.6123V23.6582H107.213ZM95.4121 0.984375V28H89.8457V0.984375H95.4121ZM121.5 23.1943V7.92383H126.844V28H121.815L121.5 23.1943ZM122.094 19.0752L123.671 19.0381C123.671 20.374 123.516 21.6172 123.207 22.7676C122.898 23.9056 122.434 24.8952 121.815 25.7363C121.197 26.5651 120.418 27.2145 119.478 27.6846C118.537 28.1423 117.43 28.3711 116.156 28.3711C115.179 28.3711 114.276 28.235 113.447 27.9629C112.631 27.6784 111.926 27.2393 111.332 26.6455C110.751 26.0394 110.293 25.2663 109.959 24.3262C109.637 23.3737 109.477 22.2295 109.477 20.8936V7.92383H114.82V20.9307C114.82 21.5244 114.888 22.0254 115.024 22.4336C115.173 22.8418 115.377 23.1758 115.637 23.4355C115.896 23.6953 116.2 23.8809 116.546 23.9922C116.905 24.1035 117.3 24.1592 117.733 24.1592C118.834 24.1592 119.7 23.9365 120.331 23.4912C120.974 23.0459 121.426 22.4398 121.686 21.6729C121.958 20.8936 122.094 20.0277 122.094 19.0752ZM135.23 7.92383L138.552 14.0283L141.966 7.92383H147.662L141.984 17.7393L147.922 28H142.207L138.589 21.543L134.971 28H129.256L135.193 17.7393L129.516 7.92383H135.23ZM162.135 23.1943V7.92383H167.479V28H162.45L162.135 23.1943ZM162.729 19.0752L164.306 19.0381C164.306 20.374 164.151 21.6172 163.842 22.7676C163.533 23.9056 163.069 24.8952 162.45 25.7363C161.832 26.5651 161.052 27.2145 160.112 27.6846C159.172 28.1423 158.065 28.3711 156.791 28.3711C155.814 28.3711 154.911 28.235 154.082 27.9629C153.266 27.6784 152.561 27.2393 151.967 26.6455C151.385 26.0394 150.928 25.2663 150.594 24.3262C150.272 23.3737 150.111 22.2295 150.111 20.8936V7.92383H155.455V20.9307C155.455 21.5244 155.523 22.0254 155.659 22.4336C155.808 22.8418 156.012 23.1758 156.271 23.4355C156.531 23.6953 156.834 23.8809 157.181 23.9922C157.539 24.1035 157.935 24.1592 158.368 24.1592C159.469 24.1592 160.335 23.9365 160.966 23.4912C161.609 23.0459 162.061 22.4398 162.32 21.6729C162.592 20.8936 162.729 20.0277 162.729 19.0752ZM176.904 12.3027V28H171.561V7.92383H176.589L176.904 12.3027ZM182.953 7.79395L182.86 12.748C182.601 12.7109 182.285 12.68 181.914 12.6553C181.555 12.6182 181.228 12.5996 180.931 12.5996C180.176 12.5996 179.521 12.6986 178.964 12.8965C178.42 13.082 177.962 13.3604 177.591 13.7314C177.232 14.1025 176.96 14.554 176.774 15.0859C176.601 15.6178 176.502 16.224 176.478 16.9043L175.401 16.5703C175.401 15.2715 175.531 14.0778 175.791 12.9893C176.051 11.8883 176.428 10.9297 176.923 10.1133C177.43 9.29688 178.049 8.66602 178.778 8.2207C179.508 7.77539 180.343 7.55273 181.283 7.55273C181.58 7.55273 181.883 7.57747 182.192 7.62695C182.502 7.66406 182.755 7.71973 182.953 7.79395ZM191.767 25.7363L197.092 7.92383H202.825L194.754 31.0244C194.581 31.5316 194.346 32.0758 194.049 32.6572C193.764 33.2386 193.375 33.7891 192.88 34.3086C192.397 34.8405 191.785 35.2734 191.043 35.6074C190.313 35.9414 189.416 36.1084 188.353 36.1084C187.845 36.1084 187.431 36.0775 187.109 36.0156C186.788 35.9538 186.404 35.8672 185.959 35.7559V31.8408C186.095 31.8408 186.237 31.8408 186.386 31.8408C186.534 31.8532 186.676 31.8594 186.812 31.8594C187.518 31.8594 188.093 31.779 188.538 31.6182C188.983 31.4574 189.342 31.21 189.614 30.876C189.886 30.5544 190.103 30.1338 190.264 29.6143L191.767 25.7363ZM189.54 7.92383L193.9 22.4707L194.661 28.1299L191.024 28.5195L183.807 7.92383H189.54ZM205.293 0.984375H215.368C217.434 0.984375 219.209 1.29362 220.693 1.91211C222.19 2.5306 223.34 3.44596 224.145 4.6582C224.949 5.87044 225.351 7.361 225.351 9.12988C225.351 10.5771 225.103 11.8203 224.608 12.8594C224.126 13.8861 223.439 14.7458 222.549 15.4385C221.671 16.1188 220.638 16.6631 219.45 17.0713L217.688 17.999H208.93L208.893 13.6572H215.405C216.382 13.6572 217.193 13.484 217.836 13.1377C218.479 12.7913 218.962 12.3089 219.283 11.6904C219.617 11.0719 219.784 10.3545 219.784 9.53809C219.784 8.6722 219.623 7.92383 219.302 7.29297C218.98 6.66211 218.492 6.17969 217.836 5.8457C217.18 5.51172 216.358 5.34473 215.368 5.34473H210.859V28H205.293V0.984375ZM220.396 28L214.236 15.958L220.118 15.9209L226.353 27.7402V28H220.396ZM238.543 28.3711C236.984 28.3711 235.587 28.1237 234.35 27.6289C233.113 27.1217 232.061 26.4229 231.195 25.5322C230.342 24.6416 229.686 23.6087 229.229 22.4336C228.771 21.2461 228.542 19.9844 228.542 18.6484V17.9062C228.542 16.3848 228.758 14.9932 229.191 13.7314C229.624 12.4697 230.243 11.375 231.047 10.4473C231.863 9.51953 232.853 8.80827 234.016 8.31348C235.178 7.80632 236.49 7.55273 237.949 7.55273C239.372 7.55273 240.633 7.78776 241.734 8.25781C242.835 8.72786 243.757 9.39583 244.499 10.2617C245.254 11.1276 245.823 12.1667 246.206 13.3789C246.59 14.5788 246.781 15.9147 246.781 17.3867V19.6133H230.824V16.0508H241.53V15.6426C241.53 14.9004 241.394 14.2386 241.122 13.6572C240.862 13.0635 240.466 12.5934 239.935 12.2471C239.403 11.9007 238.722 11.7275 237.894 11.7275C237.188 11.7275 236.582 11.8822 236.075 12.1914C235.568 12.5007 235.154 12.9336 234.832 13.4902C234.523 14.0469 234.288 14.7025 234.127 15.457C233.979 16.1992 233.904 17.0156 233.904 17.9062V18.6484C233.904 19.4525 234.016 20.1947 234.238 20.875C234.473 21.5553 234.801 22.1429 235.222 22.6377C235.655 23.1325 236.174 23.516 236.78 23.7881C237.399 24.0602 238.098 24.1963 238.877 24.1963C239.842 24.1963 240.739 24.0107 241.567 23.6396C242.409 23.2562 243.132 22.681 243.738 21.9141L246.336 24.7344C245.915 25.3405 245.34 25.9219 244.61 26.4785C243.893 27.0352 243.027 27.4928 242.013 27.8516C240.998 28.1979 239.842 28.3711 238.543 28.3711ZM259.658 7.92383V11.709H247.969V7.92383H259.658ZM250.863 2.96973H256.207V21.9512C256.207 22.5326 256.281 22.9779 256.43 23.2871C256.59 23.5964 256.826 23.8128 257.135 23.9365C257.444 24.0479 257.834 24.1035 258.304 24.1035C258.638 24.1035 258.935 24.0911 259.194 24.0664C259.466 24.0293 259.695 23.9922 259.881 23.9551L259.899 27.8887C259.442 28.0371 258.947 28.1546 258.415 28.2412C257.883 28.3278 257.296 28.3711 256.652 28.3711C255.477 28.3711 254.451 28.1794 253.572 27.7959C252.706 27.4001 252.038 26.7692 251.568 25.9033C251.098 25.0374 250.863 23.8994 250.863 22.4893V2.96973ZM268.045 12.3027V28H262.701V7.92383H267.729L268.045 12.3027ZM274.094 7.79395L274.001 12.748C273.741 12.7109 273.426 12.68 273.055 12.6553C272.696 12.6182 272.368 12.5996 272.071 12.5996C271.317 12.5996 270.661 12.6986 270.104 12.8965C269.56 13.082 269.103 13.3604 268.731 13.7314C268.373 14.1025 268.101 14.554 267.915 15.0859C267.742 15.6178 267.643 16.224 267.618 16.9043L266.542 16.5703C266.542 15.2715 266.672 14.0778 266.932 12.9893C267.191 11.8883 267.569 10.9297 268.063 10.1133C268.571 9.29688 269.189 8.66602 269.919 8.2207C270.649 7.77539 271.484 7.55273 272.424 7.55273C272.721 7.55273 273.024 7.57747 273.333 7.62695C273.642 7.66406 273.896 7.71973 274.094 7.79395ZM285.486 28.3711C283.928 28.3711 282.53 28.1237 281.293 27.6289C280.056 27.1217 279.005 26.4229 278.139 25.5322C277.285 24.6416 276.63 23.6087 276.172 22.4336C275.714 21.2461 275.485 19.9844 275.485 18.6484V17.9062C275.485 16.3848 275.702 14.9932 276.135 13.7314C276.568 12.4697 277.186 11.375 277.99 10.4473C278.807 9.51953 279.796 8.80827 280.959 8.31348C282.122 7.80632 283.433 7.55273 284.893 7.55273C286.315 7.55273 287.577 7.78776 288.678 8.25781C289.779 8.72786 290.7 9.39583 291.442 10.2617C292.197 11.1276 292.766 12.1667 293.149 13.3789C293.533 14.5788 293.725 15.9147 293.725 17.3867V19.6133H277.768V16.0508H288.474V15.6426C288.474 14.9004 288.338 14.2386 288.065 13.6572C287.806 13.0635 287.41 12.5934 286.878 12.2471C286.346 11.9007 285.666 11.7275 284.837 11.7275C284.132 11.7275 283.526 11.8822 283.019 12.1914C282.511 12.5007 282.097 12.9336 281.775 13.4902C281.466 14.0469 281.231 14.7025 281.07 15.457C280.922 16.1992 280.848 17.0156 280.848 17.9062V18.6484C280.848 19.4525 280.959 20.1947 281.182 20.875C281.417 21.5553 281.744 22.1429 282.165 22.6377C282.598 23.1325 283.118 23.516 283.724 23.7881C284.342 24.0602 285.041 24.1963 285.82 24.1963C286.785 24.1963 287.682 24.0107 288.511 23.6396C289.352 23.2562 290.076 22.681 290.682 21.9141L293.279 24.7344C292.859 25.3405 292.284 25.9219 291.554 26.4785C290.836 27.0352 289.97 27.4928 288.956 27.8516C287.942 28.1979 286.785 28.3711 285.486 28.3711ZM307.604 23.4727V14.5293C307.604 13.8861 307.498 13.3356 307.288 12.8779C307.078 12.4079 306.75 12.043 306.305 11.7832C305.872 11.5234 305.309 11.3936 304.616 11.3936C304.022 11.3936 303.509 11.4987 303.076 11.709C302.643 11.9069 302.309 12.1976 302.074 12.5811C301.839 12.9521 301.722 13.3913 301.722 13.8984H296.378C296.378 13.0449 296.576 12.2347 296.972 11.4678C297.368 10.7008 297.943 10.0267 298.697 9.44531C299.452 8.85156 300.349 8.3877 301.388 8.05371C302.439 7.71973 303.614 7.55273 304.913 7.55273C306.472 7.55273 307.857 7.8125 309.069 8.33203C310.282 8.85156 311.234 9.63086 311.927 10.6699C312.632 11.709 312.984 13.0078 312.984 14.5664V23.1572C312.984 24.2581 313.052 25.1611 313.188 25.8662C313.325 26.5589 313.522 27.165 313.782 27.6846V28H308.383C308.123 27.4557 307.925 26.7754 307.789 25.959C307.665 25.1302 307.604 24.3014 307.604 23.4727ZM308.309 15.7725L308.346 18.7969H305.358C304.653 18.7969 304.041 18.8773 303.521 19.0381C303.002 19.1989 302.575 19.4277 302.241 19.7246C301.907 20.0091 301.66 20.3431 301.499 20.7266C301.351 21.11 301.276 21.5306 301.276 21.9883C301.276 22.446 301.382 22.8604 301.592 23.2314C301.802 23.5902 302.105 23.8747 302.501 24.085C302.897 24.2829 303.361 24.3818 303.893 24.3818C304.697 24.3818 305.396 24.221 305.989 23.8994C306.583 23.5778 307.041 23.182 307.362 22.7119C307.696 22.2419 307.869 21.7965 307.882 21.376L309.292 23.6396C309.094 24.1468 308.822 24.6725 308.476 25.2168C308.142 25.7611 307.715 26.2744 307.195 26.7568C306.676 27.2269 306.051 27.6165 305.321 27.9258C304.591 28.2227 303.726 28.3711 302.724 28.3711C301.45 28.3711 300.293 28.1175 299.254 27.6104C298.227 27.0908 297.411 26.3796 296.805 25.4766C296.211 24.5612 295.914 23.5221 295.914 22.3594C295.914 21.3079 296.112 20.374 296.508 19.5576C296.904 18.7412 297.485 18.0547 298.252 17.498C299.031 16.929 300.002 16.5023 301.165 16.2178C302.328 15.9209 303.676 15.7725 305.21 15.7725H308.309ZM326.938 7.92383V11.709H315.248V7.92383H326.938ZM318.143 2.96973H323.486V21.9512C323.486 22.5326 323.561 22.9779 323.709 23.2871C323.87 23.5964 324.105 23.8128 324.414 23.9365C324.723 24.0479 325.113 24.1035 325.583 24.1035C325.917 24.1035 326.214 24.0911 326.474 24.0664C326.746 24.0293 326.975 23.9922 327.16 23.9551L327.179 27.8887C326.721 28.0371 326.226 28.1546 325.694 28.2412C325.162 28.3278 324.575 28.3711 323.932 28.3711C322.757 28.3711 321.73 28.1794 320.852 27.7959C319.986 27.4001 319.318 26.7692 318.848 25.9033C318.378 25.0374 318.143 23.8994 318.143 22.4893V2.96973ZM340.835 22.4521C340.835 22.0687 340.724 21.7223 340.501 21.4131C340.278 21.1038 339.864 20.8193 339.258 20.5596C338.664 20.2874 337.804 20.04 336.679 19.8174C335.664 19.5947 334.718 19.3164 333.84 18.9824C332.974 18.6361 332.219 18.2217 331.576 17.7393C330.945 17.2568 330.451 16.6878 330.092 16.0322C329.733 15.3643 329.554 14.6035 329.554 13.75C329.554 12.9089 329.733 12.1172 330.092 11.375C330.463 10.6328 330.989 9.97721 331.669 9.4082C332.362 8.82682 333.203 8.37533 334.192 8.05371C335.194 7.71973 336.32 7.55273 337.569 7.55273C339.313 7.55273 340.81 7.83105 342.06 8.3877C343.321 8.94434 344.286 9.71126 344.954 10.6885C345.634 11.6533 345.975 12.7542 345.975 13.9912H340.631C340.631 13.4717 340.52 13.0078 340.297 12.5996C340.087 12.179 339.753 11.8512 339.295 11.6162C338.85 11.3688 338.268 11.2451 337.551 11.2451C336.957 11.2451 336.444 11.3503 336.011 11.5605C335.578 11.7585 335.244 12.0306 335.009 12.377C334.786 12.7109 334.675 13.082 334.675 13.4902C334.675 13.7995 334.737 14.0778 334.86 14.3252C334.996 14.5602 335.213 14.7767 335.51 14.9746C335.807 15.1725 336.19 15.3581 336.66 15.5312C337.143 15.6921 337.736 15.8405 338.441 15.9766C339.889 16.2734 341.181 16.6631 342.319 17.1455C343.457 17.6156 344.36 18.2588 345.028 19.0752C345.696 19.8792 346.03 20.9368 346.03 22.248C346.03 23.1387 345.832 23.9551 345.437 24.6973C345.041 25.4395 344.472 26.0889 343.729 26.6455C342.987 27.1898 342.097 27.6165 341.058 27.9258C340.031 28.2227 338.874 28.3711 337.588 28.3711C335.72 28.3711 334.137 28.0371 332.838 27.3691C331.551 26.7012 330.574 25.8538 329.906 24.8271C329.251 23.7881 328.923 22.7243 328.923 21.6357H333.988C334.013 22.3656 334.199 22.9531 334.545 23.3984C334.904 23.8438 335.355 24.1654 335.899 24.3633C336.456 24.5612 337.056 24.6602 337.699 24.6602C338.392 24.6602 338.967 24.5674 339.425 24.3818C339.882 24.1839 340.229 23.9242 340.464 23.6025C340.711 23.2686 340.835 22.8851 340.835 22.4521Z" fill="#000000"/>
</svg>
